<?xml version="1.0" encoding="utf-8"?>
<!-- Generator: Adobe Illustrator 16.0.0, SVG Export Plug-In . SVG Version: 6.00 Build 0)  -->
<!DOCTYPE svg PUBLIC "-//W3C//DTD SVG 1.1//EN" "http://www.w3.org/Graphics/SVG/1.1/DTD/svg11.dtd">
<svg version="1.1" id="Layer_1" xmlns="http://www.w3.org/2000/svg" xmlns:xlink="http://www.w3.org/1999/xlink" x="0px" y="0px"
	 width="656px" height="224px" viewBox="0 0 656 224" enable-background="new 0 0 656 224" xml:space="preserve">
<g>
	<polygon fill="#FF483F" points="0,176 0,192 0,224 16,224 16,192 64,192 64,176 16,176 	"/>
	<rect x="64" y="144" fill="#FF483F" width="16" height="32"/>
	<rect x="16" y="128" fill="#FF483F" width="48" height="16"/>
	<polygon fill="#FF483F" points="96,128 96,144 96,192 112,192 112,144 160,144 160,128 112,128 	"/>
	<path fill="#FF483F" d="M256,192v-16v-32v-16h-16h-48h-16v16v32v16h16h48H256z M192,144h48v32h-48V144z"/>
	<rect x="272" y="128" fill="#FF483F" width="16" height="80"/>
	<rect x="224" y="208" fill="#FF483F" width="48" height="16"/>
	<polygon fill="#FF483F" points="320,128 304,128 304,144 304,176 320,176 320,144 352,144 352,160 368,160 368,144 368,128 
		352,128 	"/>
	<rect x="320" y="176" fill="#FF483F" width="48" height="16"/>
	<rect x="384" y="144" fill="#FF483F" width="16" height="32"/>
	<rect x="400" y="128" fill="#FF483F" width="48" height="16"/>
	<rect x="400" y="176" fill="#FF483F" width="48" height="16"/>
	<rect x="464" y="144" fill="#FF483F" width="16" height="32"/>
	<rect x="480" y="128" fill="#FF483F" width="32" height="16"/>
	<rect x="480" y="176" fill="#FF483F" width="16" height="16"/>
	<rect x="528" y="144" fill="#FF483F" width="16" height="16"/>
	<rect x="544" y="128" fill="#FF483F" width="48" height="16"/>
	<rect x="544" y="160" fill="#FF483F" width="32" height="16"/>
	<rect x="576" y="176" fill="#FF483F" width="16" height="16"/>
	<polygon fill="#FF483F" points="64,32 32,32 32,0 16,0 16,32 16,48 32,48 64,48 64,80 16,80 16,96 64,96 80,96 80,80 80,48 64,48 	
		"/>
	<polygon fill="#FF483F" points="96,32 96,48 96,96 112,96 112,48 160,48 160,32 112,32 	"/>
	<polygon fill="#FF483F" points="224,96 224,80 192,80 192,48 176,48 176,80 176,96 192,96 	"/>
	<polygon fill="#FF483F" points="224,80 240,80 240,48 240,32 224,32 192,32 192,48 224,48 	"/>
	<rect x="256" y="32" fill="#FF483F" width="16" height="64"/>
	<rect x="288" y="48" fill="#FF483F" width="16" height="48"/>
	<polygon fill="#FF483F" points="336,96 352,96 352,48 352,32 336,32 304,32 304,48 336,48 	"/>
	<rect x="368" y="48" fill="#FF483F" width="16" height="32"/>
	<rect x="384" y="32" fill="#FF483F" width="48" height="16"/>
	<rect x="384" y="80" fill="#FF483F" width="48" height="16"/>
	<polygon fill="#FF483F" points="496,32 464,32 464,0 448,0 448,32 448,48 464,48 496,48 496,96 512,96 512,48 496,48 	"/>
	<rect x="528" y="32" fill="#FF483F" width="16" height="64"/>
	<rect x="560" fill="#FF483F" width="16" height="80"/>
	<polygon fill="#FF483F" points="640,0 640,32 608,32 608,48 592,48 592,80 592,96 608,96 640,96 640,80 608,80 608,48 640,48 
		656,48 656,32 656,0 	"/>
	<rect x="464" y="80" fill="#FF483F" width="16" height="48"/>
</g>
</svg>
