<svg xmlns="http://www.w3.org/2000/svg" viewBox="0 0 656 224"><defs><style>.cls-1{fill:#4ed8fc;}</style></defs><title>Asset 2</title><g id="Layer_2" data-name="Layer 2"><g id="Layer_1-2" data-name="Layer 1"><polygon class="cls-1" points="0 176 0 192 0 224 16 224 16 192 64 192 64 176 16 176 0 176"/><rect class="cls-1" x="64" y="144" width="16" height="32"/><rect class="cls-1" x="16" y="128" width="48" height="16"/><polygon class="cls-1" points="96 128 96 144 96 192 112 192 112 144 160 144 160 128 112 128 96 128"/><path class="cls-1" d="M256,192V128H176v64h80Zm-64-48h48v32H192Z"/><rect class="cls-1" x="272" y="128" width="16" height="80"/><rect class="cls-1" x="224" y="208" width="48" height="16"/><polygon class="cls-1" points="320 128 304 128 304 144 304 176 320 176 320 144 352 144 352 160 368 160 368 144 368 128 352 128 320 128"/><rect class="cls-1" x="320" y="176" width="48" height="16"/><rect class="cls-1" x="384" y="144" width="16" height="32"/><rect class="cls-1" x="400" y="128" width="48" height="16"/><rect class="cls-1" x="400" y="176" width="48" height="16"/><rect class="cls-1" x="464" y="144" width="16" height="32"/><rect class="cls-1" x="480" y="128" width="32" height="16"/><rect class="cls-1" x="480" y="176" width="16" height="16"/><rect class="cls-1" x="528" y="144" width="16" height="16"/><rect class="cls-1" x="544" y="128" width="48" height="16"/><rect class="cls-1" x="544" y="160" width="32" height="16"/><rect class="cls-1" x="576" y="176" width="16" height="16"/><polygon class="cls-1" points="32 32 32 0 16 0 16 32 16 48 32 48 64 48 64 32 32 32"/><polygon class="cls-1" points="64 80 16 80 16 96 64 96 80 96 80 80 80 48 64 48 64 80"/><polygon class="cls-1" points="96 32 96 48 96 96 112 96 112 48 160 48 160 32 112 32 96 32"/><polygon class="cls-1" points="224 96 224 80 192 80 192 48 176 48 176 80 176 96 192 96 224 96"/><polygon class="cls-1" points="224 80 240 80 240 48 240 32 224 32 192 32 192 48 224 48 224 80"/><rect class="cls-1" x="256" y="32" width="16" height="64"/><rect class="cls-1" x="288" y="48" width="16" height="48"/><polygon class="cls-1" points="336 96 352 96 352 48 352 32 336 32 304 32 304 48 336 48 336 96"/><rect class="cls-1" x="368" y="48" width="16" height="32"/><rect class="cls-1" x="384" y="32" width="48" height="16"/><rect class="cls-1" x="384" y="80" width="48" height="16"/><polygon class="cls-1" points="464 32 464 0 448 0 448 32 448 48 464 48 496 48 496 32 464 32"/><rect class="cls-1" x="496" y="48" width="16" height="48"/><rect class="cls-1" x="528" y="32" width="16" height="64"/><rect class="cls-1" x="560" width="16" height="80"/><polygon class="cls-1" points="592 80 592 96 608 96 640 96 640 80 608 80 608 48 592 48 592 80"/><polygon class="cls-1" points="640 0 640 32 608 32 608 48 640 48 656 48 656 32 656 0 640 0"/><rect class="cls-1" x="464" y="80" width="16" height="48"/></g></g></svg>