<svg id="Layer_1" data-name="Layer 1" xmlns="http://www.w3.org/2000/svg" viewBox="0 0 324 115"><defs><style>.cls-1{fill:#fed025;}</style></defs><title>logo</title><path class="cls-1" d="M15.5,23.5V7.5h-8v24h24v-8Zm24,8h-8v16H7.5v8h32Zm16,0h24v-8h-32v32h8Zm56,16h-16v-16h-8v24h24Zm0,0h8v-24h-24v8h16Zm24-24h-8v32h8Zm8,32h8v-24h-8Zm24,0h8v-32h-24v8h16Zm24,43h8v-16h-8Zm8-16h20v-8h-20Zm20,24v-8h-20v8Zm-36-75v16h8v-16Zm28-8h-20v8h20Zm0,32v-8h-20v8Zm32-32h-16V7.5h-8v24h24Zm8,32v-24h-8v24Zm16-32h-8v32h8Zm16-16h-8v40h8Zm8,24v24h24v-8h-16v-16Zm32-24h-8v16h-16v8h24Zm-324,115h8v-16h24v-8H-.5Zm8-48v8h24v-8Zm24,24h8v-16h-8Zm16,8h8v-24h24v-8h-32Zm76-32h-36v32h36Zm-8,24h-20v-16h20Zm20,16h8v-40h-8Zm-20,8h20v-8h-20Zm68-16v-8h-24v8Zm-32-8h8v-16h16v8h8v-16h-32Zm84-16h16v-8h-16Zm-8,16h8v-16h-8Zm16,8v-8h-8v8Zm16-16h8v-8h-8Zm8-8h24v-8h-24Zm16,16v-8h-16v8Zm8,8v-8h-8v8Zm-64-48v16h8v-16Z" transform="translate(0.5 -7.5)"/></svg>